# AST/ASF file generated using VICON BodyLanguage
# -----------------------------------------------
:version 1.10
:name VICON
:units
  mass 1.0
  length 0.45
  angle deg
:documentation
   .ast/.asf automatically generated from VICON data using
   VICON BodyBuilder and BodyLanguage model FoxedUp or BRILLIANT.MOD
:root
   order TX TY TZ RX RY RZ
   axis XYZ
   position 0 0 0  
   orientation 0 0 0 
:bonedata
  begin
     id 1 
     name lhipjoint
     direction 0.693937 -0.600361 0.397515 
     length 2.37164 
     axis 0 0 0  XYZ
  end
  begin
     id 2 
     name lfemur
     direction 0.34202 -0.939693 0  
     length 6.18497  
     axis 0 0 20  XYZ
    dof rx ry rz
    limits (-160.0 20.0)
           (-70.0 70.0)
           (-60.0 70.0)
  end
  begin
     id 3 
     name ltibia
     direction 0.34202 -0.939693 0   
     length 6.91601   
     axis 0 0 20   XYZ
    dof rx
    limits (-10.0 170.0)
  end
  begin
     id 4 
     name lfoot
     direction 0.0978718 -0.2689 0.958182   
     length 1.81453   
     axis -90 7.62852e-016 20   XYZ
    dof rx rz
    limits (-45.0 90.0)
           (-70.0 20.0)
  end
  begin
     id 5 
     name ltoes
     direction 1.53569e-011 -4.21951e-011 1   
     length 0.912052   
     axis -90 7.62852e-016 20   XYZ
    dof rx
    limits (-90.0 20.0)
  end
  begin
     id 6 
     name rhipjoint
     direction -0.643996 -0.637876 0.422354   
     length 2.23216  
     axis 0 0 0  XYZ 
  end
  begin
     id 7 
     name rfemur
     direction -0.34202 -0.939693 0   
     length 6.15404   
     axis 0 0 -20   XYZ
    dof rx ry rz
    limits (-160.0 20.0)
           (-70.0 70.0)
           (-70.0 60.0)
  end
  begin
     id 8 
     name rtibia
     direction -0.34202 -0.939693 0   
     length 6.86744   
     axis 0 0 -20   XYZ
    dof rx
    limits (-10.0 170.0)
 end
 begin
     id 9 
     name rfoot
     direction -0.118701 -0.326127 0.937844   
     length 1.9243  
     axis -90 -7.62852e-016 -20   XYZ
    dof rx rz
    limits (-45.0 90.0)
           (-20.0 70.0)
  end
  begin
     id 10 
     name rtoes
     direction -1.5356e-011 -4.2181e-011 1   
     length 0.958865   
     axis -90 -7.62852e-016 -20   XYZ
    dof rx
    limits (-90.0 20.0)
  end
  begin
     id 11 
     name lowerback
     direction 0.0310826 0.968686 -0.246334   
     length 2.00021   
     axis 0 0 0   XYZ
    dof rx ry rz
    limits (-20.0 45.0)
           (-30.0 30.0)
           (-30.0 30.0)
  end
  begin
     id 12 
     name upperback
     direction -0.0152834 0.999474 -0.0286152   
     length 2.03728   
     axis 0 0 0   XYZ
    dof rx ry rz
    limits (-20.0 45.0)
           (-30.0 30.0)
           (-30.0 30.0)
  end
  begin
     id 13 
     name thorax
     direction -0.0323701 0.996236 0.0804149   
     length 2.16   
     axis 0 0 0   XYZ
    dof rx ry rz
    limits (-20.0 45.0)
           (-30.0 30.0)
           (-30.0 30.0)
  end
  begin
     id 14 
     name lowerneck
     direction 0.0307935 0.982251 0.185027   
     length 1.43558   
     axis 0 0 0   XYZ
    dof rx ry rz
    limits (-20.0 45.0)
           (-30.0 30.0)
           (-30.0 30.0)
  end
  begin
     id 15 
     name upperneck
     direction -0.0927153 0.994775 0.0427454   
     length 1.44603   
     axis 0 0 0   XYZ
    dof rx ry rz
    limits (-20.0 45.0)
           (-30.0 30.0)
           (-30.0 30.0)
  end
  begin
     id 16
     name head
     direction -0.0341265 0.999406 -0.00472033  
     length 1.45931  
     axis 0 0 0   XYZ
    dof rx ry rz
    limits (-20.0 45.0)
           (-30.0 30.0)
           (-30.0 30.0)
  end
  begin
     id 17 
     name lclavicle
     direction 0.820755 0.555306 -0.134151  
     length 2.66075  
     axis 0 0 0   XYZ
    dof ry rz
    limits (-20.0 10.0)
           (0.0 20.0)
  end
  begin
     id 18 
     name lhumerus
     direction 1 -4.48971e-011 5.24853e-027   
     length 5.0546   
     axis -180 -30 -90   XYZ
    dof rx ry rz
    limits (-60.0 90.0)
           (-90.0 90.0)
           (-90.0 90.0)
  end
  begin
     id 19
     name lradius
     direction 1 -4.48971e-011 2.76575e-028   
     length 3.39013   
     axis -180 -30 -90   XYZ
    dof rx
    limits (-10.0 170.0)
  end
  begin
     id 20
     name lwrist
     direction 1 -4.48939e-011 -2.27826e-027   
     length 1.69507   
     axis 2.17013e-015 90 90   XYZ
    dof ry
    limits (-180.0 0.0)
 end
  begin
     id 21 
     name lhand
     direction 1 -4.49009e-011 -4.55652e-027   
     length 0.572425   
     axis 2.90745e-015 90 90   XYZ
    dof rx rz
    limits (-90.0 90.0)
           (-45.0 45.0)
  end
  begin
     id 22 
     name lfingers
     direction 1 -4.48955e-011 -9.11303e-027   
     length 0.461504   
     axis 5.81489e-015 90 90   XYZ
    dof rx
    limits (0.0 90.0)
  end
  begin
     id 23
     name lthumb
     direction 0.707107 -6.34929e-011 0.707107   
     length 0.66263   
     axis -90 45 2.85299e-015   XYZ
    dof rx rz
    limits (-45.0 45.0)
           (-45.0 45.0)
  end
  begin
     id 24 
     name rclavicle
     direction -0.754477 0.632921 -0.173712   
     length 2.73081  
     axis 0 0 0   XYZ 
    dof ry rz
    limits (-10.0 20.0)
           (-20.0 0.0)
  end
  begin
     id 25 
     name rhumerus
     direction -1 -4.48969e-011 5.1496e-027  
     length 5.0701   
     axis -180 30 90   XYZ
    dof rx ry rz
    limits (-90.0 60.0)
           (-90.0 90.0)
           (-90.0 90.0)
  end
  begin
     id 26 
     name rradius
     direction -1 -4.48967e-011 -7.15624e-028   
     length 3.14957   
     axis -180 30 90   XYZ
    dof rx
    limits (-10.0 170.0)
  end
  begin
     id 27 
     name rwrist
     direction -1 -4.48938e-011 -2.27826e-027   
     length 1.57479   
     axis 2.17013e-015 -90 -90   XYZ
    dof ry
    limits (-180.0 0.0)
  end
  begin
     id 28
     name rhand
     direction -1 -4.49008e-011 -4.55652e-027   
     length 0.718191   
     axis 2.90745e-015 -90 -90   XYZ
    dof rx rz
    limits (-90.0 90.0)
           (-45.0 45.0)
  end
  begin
     id 29
     name rfingers
     direction -1 -4.48953e-011 -9.11303e-027   
     length 0.579024   
     axis 5.81489e-015 -90 -90   XYZ
    dof rx
    limits (0.0 90.0)
  end
  begin
     id 30
     name rthumb
     direction -0.707107 -6.34937e-011 0.707107   
     length 0.831366   
     axis -90 -45 -2.85299e-015   XYZ
    dof rx rz
    limits (-45.0 45.0)
           (-45.0 45.0)
  end
:hierarchy
  begin
    root lhipjoint rhipjoint lowerback
    lhipjoint lfemur
    lfemur ltibia
    ltibia lfoot
    lfoot ltoes
    rhipjoint rfemur
    rfemur rtibia
    rtibia rfoot
    rfoot rtoes
    lowerback upperback
    upperback thorax
    thorax lowerneck lclavicle rclavicle
    lowerneck upperneck
    upperneck head
    lclavicle lhumerus
    lhumerus lradius
    lradius lwrist
    lwrist lhand lthumb
    lhand lfingers
    rclavicle rhumerus
    rhumerus rradius
    rradius rwrist
    rwrist rhand rthumb
    rhand rfingers
  end

#!OML:ASF H:\Male1\Project 1\Capture day 1\Session 1\Male1.ASF
:FULLY-SPECIFIED
:DEGREES
49
root -24.4133 15.3049 0.175354 -18.0047 85.6442 -16.9302
lowerback 2.38842 1.97189 0.0564412
upperback 3.18914 2.69246 -0.807153
thorax 1.97445 1.3792 -0.873947
lowerneck -12.8076 2.71462 5.80606
upperneck 27.2566 3.38923 -1.0797
head 11.0422 2.23748 -0.890585
rclavicle -2.09221e-014 1.19271e-014
rhumerus -35.1343 4.91809 -91.2747
rradius 34.5722
rwrist -20.1273
rhand -17.2678 0.955835
rfingers 7.12502
rthumb 8.97691 -28.8332
lclavicle -2.09221e-014 1.19271e-014
lhumerus -27.8369 -2.94824 89.3631
lradius 26.8619
lwrist -5.26759
lhand -17.7357 9.7307
lfingers 7.12502
lthumb 8.5254 39.5386
rfemur -2.22142 16.3655 26.6579
rtibia 19.181
rfoot -24.6389 -32.9553
rtoes -21.2923
lfemur -4.57717 -17.009 -21.7252
ltibia 22.8749
lfoot -20.9266 22.4919
ltoes -5.71323
50
root -24.4101 15.3046 0.175266 -17.9853 85.746 -16.8584
lowerback 2.42782 1.97248 0.107861
upperback 3.25223 2.6968 -0.846202
thorax 2.02178 1.38417 -0.942676
lowerneck -12.958 2.6693 5.75204
upperneck 27.6413 3.29966 -0.895167
head 11.2108 2.22462 -0.821291
rclavicle 2.28105e-014 1.19271e-015
rhumerus -35.0132 4.75597 -91.2238
rradius 34.5175
rwrist -20.1314
rhand -17.3155 0.963046
rfingers 7.12502
rthumb 8.93092 -28.8279
lclavicle 2.28105e-014 1.19271e-015
lhumerus -27.7508 -3.37583 89.4475
lradius 26.9109
lwrist -5.06856
lhand -17.7043 9.71912
lfingers 7.12502
lthumb 8.55571 39.5258
rfemur -2.16403 16.3628 26.641
rtibia 19.2432
rfoot -24.5679 -32.8669
rtoes -20.2224
lfemur -4.49672 -17.1551 -21.8066
ltibia 22.8479
lfoot -20.8885 22.5639
ltoes -5.76432
51
root -24.4088 15.3008 0.172753 -17.4909 85.9581 -16.181
lowerback 2.65811 1.91447 0.0818045
upperback 3.3312 2.6229 -0.881101
thorax 1.97335 1.34893 -0.970507
lowerneck -13.0801 2.66691 5.74389
upperneck 27.998 3.27809 -0.773791
head 11.3691 2.23936 -0.773665
rclavicle 1.68967e-014 -1.11319e-014
rhumerus -34.9365 4.76115 -91.1926
rradius 34.4663
rwrist -20.2264
rhand -17.3031 1.05443
rfingers 7.12502
rthumb 8.94286 -28.736
lclavicle 1.68967e-014 -1.11319e-014
lhumerus -27.687 -3.69539 89.5416
lradius 26.9333
lwrist -4.90545
lhand -17.69 9.75575
lfingers 7.12502
lthumb 8.56951 39.5618
rfemur -1.9475 16.3574 26.5703
rtibia 19.2632
rfoot -24.7571 -32.8751
rtoes -19.2904
lfemur -4.30757 -17.5461 -22.0452
ltibia 22.8583
lfoot -20.9903 22.6596
ltoes -5.11946
52
root -24.4067 15.3003 0.174741 -16.6443 86.0277 -15.344
lowerback 2.72883 1.87377 -0.0167039
upperback 3.32334 2.56707 -0.877585
thorax 1.9201 1.31881 -0.914344
lowerneck -13.0498 2.68279 5.79019
upperneck 28.2173 3.30882 -0.772736
head 11.4498 2.26646 -0.775235
rclavicle 9.74045e-015 -1.19271e-014
rhumerus -34.9587 4.95965 -91.229
rradius 34.4611
rwrist -20.1628
rhand -17.4881 0.951124
rfingers 7.12502
rthumb 8.76434 -28.8469
lclavicle 9.74045e-015 -1.19271e-014
lhumerus -27.7251 -3.84381 89.6271
lradius 26.996
lwrist -4.76944
lhand -17.7955 9.7823
lfingers 7.12502
lthumb 8.46774 39.5925
rfemur -1.91559 16.4539 26.522
rtibia 19.2447
rfoot -24.9587 -32.9112
rtoes -18.6506
lfemur -4.33668 -17.6239 -22.1204
ltibia 22.8961
lfoot -21.0612 22.615
ltoes -4.82484
53
root -24.405 15.3003 0.177323 -17.7162 86.006 -16.4548
lowerback 2.81326 1.80761 -0.0148281
upperback 3.26934 2.47478 -0.780167
thorax 1.81129 1.27047 -0.819042
lowerneck -12.9104 2.71955 5.71364
upperneck 28.3958 3.41592 -0.79519
head 11.4929 2.31231 -0.755867
rclavicle -4.17448e-014 7.15625e-015
rhumerus -35.078 5.35436 -91.2629
rradius 34.5314
rwrist -19.9789
rhand -17.835 0.598615
rfingers 7.12502
rthumb 8.42953 -29.2132
lclavicle -4.17448e-014 7.15625e-015
lhumerus -27.8785 -3.81432 89.7368
lradius 27.0964
lwrist -4.64962
lhand -17.895 9.901
lfingers 7.12502
lthumb 8.37165 39.7151
rfemur -1.91091 16.6094 26.6413
rtibia 19.2131
rfoot -25.1001 -33.0025
rtoes -18.21
lfemur -4.39947 -17.5952 -22.0097
ltibia 22.939
lfoot -21.0192 22.6475
ltoes -5.13052
54
root -24.4033 15.3006 0.180392 -19.6393 85.9603 -18.4163
lowerback 2.87983 1.75436 0.084995
upperback 3.20911 2.40132 -0.687374
thorax 1.71094 1.23357 -0.782584
lowerneck -12.7749 2.75292 5.61659
upperneck 28.6077 3.52399 -0.808951
head 11.5491 2.35868 -0.72924
rclavicle -1.38652e-014 7.55382e-015
rhumerus -35.1969 5.62832 -91.2758
rradius 34.5817
rwrist -19.9039
rhand -17.993 0.332329
rfingers 7.12502
rthumb 8.27712 -29.4855
lclavicle -1.38652e-014 7.55382e-015
lhumerus -28.0339 -3.77879 89.818
lradius 27.1337
lwrist -4.62765
lhand -18.0011 9.9972
lfingers 7.12502
lthumb 8.26923 39.8154
rfemur -1.88368 16.8048 26.8364
rtibia 19.1528
rfoot -25.2551 -33.1099
rtoes -17.7353
lfemur -4.46621 -17.5445 -21.816
ltibia 22.982
lfoot -21.0088 22.6095
ltoes -5.23501
55
root -24.4017 15.301 0.182493 -19.6132 85.9932 -18.4072
lowerback 2.93616 1.77489 0.134657
upperback 3.18045 2.42906 -0.714139
thorax 1.65362 1.24849 -0.840659
lowerneck -12.7772 2.67453 5.61907
upperneck 28.9414 3.41622 -0.733269
head 11.6743 2.33235 -0.713116
rclavicle 1.21756e-014 -5.96354e-015
rhumerus -35.2295 5.49862 -91.2523
rradius 34.533
rwrist -19.7876
rhand -18.0282 0.193645
rfingers 7.12502
rthumb 8.24308 -29.6255
lclavicle 1.21756e-014 -5.96354e-015
lhumerus -28.0916 -3.94519 89.879
lradius 27.1103
lwrist -4.67312
lhand -18.1239 9.98614
lfingers 7.12502
lthumb 8.15072 39.8089
rfemur -1.83171 16.916 26.8491
rtibia 19.0708
rfoot -25.3798 -33.1864
rtoes -17.4859
lfemur -4.51128 -17.57 -21.8133
ltibia 23.0307
lfoot -21.0468 22.5687
ltoes -5.13958
56
root -24.4007 15.3018 0.18318 -19.1326 86.0545 -17.9768
lowerback 2.95559 1.81286 0.127345
upperback 3.17425 2.47984 -0.736728
thorax 1.63794 1.27403 -0.861213
lowerneck -12.7528 2.58701 5.61867
upperneck 29.1141 3.28119 -0.643011
head 11.7305 2.29042 -0.696835
rclavicle -1.31695e-014 1.59028e-015
rhumerus -35.2075 5.2458 -91.1275
rradius 34.473
rwrist -19.7347
rhand -17.7824 0.388084
rfingers 7.12502
rthumb 8.48038 -29.4216
lclavicle -1.31695e-014 1.59028e-015
lhumerus -28.0875 -4.16587 89.982
lradius 27.1368
lwrist -4.63934
lhand -18.1768 9.95105
lfingers 7.12502
lthumb 8.0997 39.7758
rfemur -1.83365 16.9553 26.7938
rtibia 18.9944
rfoot -25.408 -33.2399
rtoes -17.4868
lfemur -4.58816 -17.5912 -21.8496
ltibia 23.0698
lfoot -21.0297 22.5438
ltoes -5.15959
57
root -24.3998 15.3031 0.183944 -19.8642 86.0789 -18.7791
lowerback 2.95329 1.80311 0.13601
upperback 3.2008 2.46688 -0.680333
thorax 1.66414 1.26731 -0.807487
lowerneck -12.8517 2.62383 5.56157
upperneck 29.3282 3.32719 -0.54542
head 11.8338 2.32291 -0.640639
rclavicle -2.66371e-014 1.98785e-015
rhumerus -35.1497 5.15873 -90.9438
rradius 34.4892
rwrist -19.9266
rhand -17.2544 0.741903
rfingers 7.12502
rthumb 8.98987 -29.0466
lclavicle -2.66371e-014 1.98785e-015
lhumerus -28.0481 -4.28034 90.1031
lradius 27.2181
lwrist -4.45161
lhand -18.219 9.7855
lfingers 7.12502
lthumb 8.05898 39.6118
rfemur -1.86277 17.0268 26.8373
rtibia 18.946
rfoot -25.5085 -33.2656
rtoes -17.246
lfemur -4.68326 -17.6107 -21.7691
ltibia 23.0915
lfoot -21.0564 22.4854
ltoes -5.0845
58
root -24.3993 15.3042 0.184025 -20.6418 86.0786 -19.619
lowerback 3.00664 1.76134 0.12977
upperback 3.21178 2.41007 -0.594425
thorax 1.64065 1.23777 -0.716966
lowerneck -12.9249 2.6534 5.521
upperneck 29.4774 3.40268 -0.607355
head 11.9104 2.34788 -0.643596
rclavicle -2.08724e-014 0
rhumerus -35.1434 5.36233 -90.8694
rradius 34.5824
rwrist -20.0239
rhand -17.1827 0.603182
rfingers 7.12502
rthumb 9.05905 -29.1823
lclavicle -2.08724e-014 0
lhumerus -28.0494 -4.24555 90.2098
lradius 27.2775
lwrist -4.30625
lhand -18.2408 9.60723
lfingers 7.12502
lthumb 8.0379 39.4344
rfemur -1.90078 17.05 26.8803
rtibia 18.8987
rfoot -25.5182 -33.3065
rtoes -17.2505
lfemur -4.76363 -17.6434 -21.6883
ltibia 23.1071
lfoot -21.0728 22.5088
ltoes -5.23836
59
root -24.3992 15.304 0.182819 -20.7742 86.092 -19.7962
lowerback 3.07755 1.72417 0.121226
upperback 3.21536 2.36005 -0.558973
thorax 1.6021 1.21225 -0.677581
lowerneck -12.8649 2.65753 5.52856
upperneck 29.4954 3.44502 -0.71026
head 11.9084 2.35605 -0.678074
rclavicle 9.49197e-015 -1.19271e-015
rhumerus -35.1383 5.53664 -90.876
rradius 34.6244
rwrist -19.9621
rhand -17.3096 0.465456
rfingers 7.12502
rthumb 8.9366 -29.3253
lclavicle 9.49197e-015 -1.19271e-015
lhumerus -28.1044 -4.24262 90.2623
lradius 27.353
lwrist -4.22267
lhand -18.1558 9.62837
lfingers 7.12502
lthumb 8.12 39.4524
rfemur -1.95194 16.9783 26.8559
rtibia 18.8613
rfoot -25.2798 -33.3851
rtoes -17.9498
lfemur -4.81727 -17.6845 -21.6762
ltibia 23.1187
lfoot -21.0689 22.5636
ltoes -5.31035
60
root -24.3907 15.3039 0.183785 -19.1845 85.7703 -18.2827
lowerback 2.85453 1.83387 0.119582
upperback 3.33378 2.50959 -0.567392
thorax 1.8511 1.28843 -0.676702
lowerneck -12.8577 2.66064 5.60939
upperneck 29.4225 3.43936 -0.765206
head 11.881 2.35255 -0.714165
rclavicle 1.09829e-014 -4.37326e-015
rhumerus -34.9465 5.46555 -90.8033
rradius 34.5705
rwrist -20.0683
rhand -17.0673 0.795602
rfingers 7.12502
rthumb 9.17044 -28.985
lclavicle 1.09829e-014 -4.37326e-015
lhumerus -27.9829 -4.42954 90.2833
lradius 27.4083
lwrist -4.06698
lhand -18.1237 9.65194
lfingers 7.12502
lthumb 8.15093 39.4747
rfemur -2.04425 17.0323 26.8423
rtibia 18.8761
rfoot -24.9182 -33.2907
rtoes -18.8189
lfemur -4.80397 -17.3636 -21.6291
ltibia 23.0966
lfoot -21.1698 22.5636
ltoes -5.13191
61
root -24.3923 15.3051 0.184289 -18.411 85.7455 -17.5192
lowerback 3.01684 1.86338 0.0825584
upperback 3.3288 2.54896 -0.590328
thorax 1.7552 1.30794 -0.686123
lowerneck -12.8359 2.64639 5.66048
upperneck 29.5269 3.41377 -0.752957
head 11.918 2.35265 -0.721079
rclavicle -3.62782e-015 -2.38542e-015
rhumerus -34.9945 5.44303 -90.7613
rradius 34.6078
rwrist -20.2414
rhand -16.9319 0.969806
rfingers 7.12502
rthumb 9.30105 -28.805
lclavicle -3.62782e-015 -2.38542e-015
lhumerus -27.9959 -4.70279 90.3437
lradius 27.4255
lwrist -3.88968
lhand -18.2319 9.61048
lfingers 7.12502
lthumb 8.04655 39.4373
rfemur -2.12421 17.0811 26.7807
rtibia 18.9703
rfoot -25.0692 -33.2753
rtoes -18.7147
lfemur -4.78015 -17.3228 -21.6697
ltibia 23.0095
lfoot -21.106 22.6018
ltoes -5.26482
62
root -24.4043 15.3072 0.184011 -17.9729 86.1155 -17.0847
lowerback 3.29099 1.76621 -0.0239296
upperback 3.34012 2.41957 -0.657302
thorax 1.61041 1.24282 -0.703002
lowerneck -12.8441 2.6459 5.69807
upperneck 29.5824 3.40002 -0.726914
head 11.9418 2.35581 -0.718984
rclavicle -2.1419e-014 1.19271e-015
rhumerus -34.9959 5.45436 -90.7963
rradius 34.6706
rwrist -20.262
rhand -17.0402 0.871984
rfingers 7.12502
rthumb 9.19659 -28.9075
lclavicle -2.1419e-014 1.19271e-015
lhumerus -27.9762 -5.03327 90.3784
lradius 27.4403
lwrist -3.84147
lhand -18.4688 9.59124
lfingers 7.12502
lthumb 7.81785 39.4267
rfemur -2.23662 17.0246 26.5985
rtibia 19.1043
rfoot -25.4392 -33.4137
rtoes -18.4786
lfemur -4.84916 -17.6604 -21.8215
ltibia 22.8901
lfoot -20.9219 22.621
ltoes -5.39761
63
root -24.3925 15.3059 0.183246 -14.0746 85.7527 -13.2142
lowerback 3.1245 1.9273 -0.156528
upperback 3.44662 2.63767 -0.758245
thorax 1.81494 1.35179 -0.727222
lowerneck -12.8423 2.63473 5.838
upperneck 29.5326 3.34706 -0.737233
head 11.9236 2.34439 -0.75478
rclavicle 3.43401e-014 -1.07344e-014
rhumerus -34.9364 5.41472 -90.8814
rradius 34.7195
rwrist -20.1146
rhand -17.3122 0.566793
rfingers 7.12502
rthumb 8.93405 -29.2241
lclavicle 3.43401e-014 -1.07344e-014
lhumerus -27.9811 -5.48545 90.4116
lradius 27.4887
lwrist -3.83352
lhand -18.9018 9.41883
lfingers 7.12502
lthumb 7.39996 39.2694
rfemur -2.32696 16.9985 26.3834
rtibia 19.2371
rfoot -25.2104 -33.1725
rtoes -19.8953
lfemur -4.73066 -17.4374 -22.0061
ltibia 22.7917
lfoot -21.0556 22.77
ltoes -5.15901
